<svg width="514" height="164" viewBox="0 0 514 164" fill="none" xmlns="http://www.w3.org/2000/svg">
<g clip-path="url(#clip0_779_25)">
<path d="M101 42C112.046 42 121 33.0457 121 22C121 10.9543 112.046 2 101 2C89.9543 2 81 10.9543 81 22C81 33.0457 89.9543 42 101 42Z" stroke="#667085" stroke-width="2"/>
<path d="M101 162C112.046 162 121 153.046 121 142C121 130.954 112.046 122 101 122C89.9543 122 81 130.954 81 142C81 153.046 89.9543 162 101 162Z" stroke="#667085" stroke-width="2"/>
<path d="M21 122C32.0457 122 41 113.046 41 102C41 90.9543 32.0457 82 21 82C9.9543 82 1 90.9543 1 102C1 113.046 9.9543 122 21 122Z" stroke="#667085" stroke-width="2"/>
<path d="M141 122C152.046 122 161 113.046 161 102C161 90.9543 152.046 82 141 82C129.954 82 121 90.9543 121 102C121 113.046 129.954 122 141 122Z" stroke="#667085" stroke-width="2"/>
<path d="M193 102C204.046 102 213 93.0457 213 82C213 70.9543 204.046 62 193 62C181.954 62 173 70.9543 173 82C173 93.0457 181.954 102 193 102Z" stroke="#667085" stroke-width="2"/>
<path d="M313 102C324.046 102 333 93.0457 333 82C333 70.9543 324.046 62 313 62C301.954 62 293 70.9543 293 82C293 93.0457 301.954 102 313 102Z" stroke="#667085" stroke-width="2"/>
<path d="M253 42C264.046 42 273 33.0457 273 22C273 10.9543 264.046 2 253 2C241.954 2 233 10.9543 233 22C233 33.0457 241.954 42 253 42Z" stroke="#667085" stroke-width="2"/>
<path d="M253 162C264.046 162 273 153.046 273 142C273 130.954 264.046 122 253 122C241.954 122 233 130.954 233 142C233 153.046 241.954 162 253 162Z" stroke="#667085" stroke-width="2"/>
<path d="M1 102C1 90.9543 9.9543 82 21 82H141C152.046 82 161 90.9543 161 102C161 113.046 152.046 122 141 122H21C9.9543 122 1 113.046 1 102Z" stroke="#667085" stroke-width="2"/>
<path d="M101 162C89.9543 162 81 153.046 81 142V22C81 10.9543 89.9543 2 101 2C112.046 2 121 10.9543 121 22V142C121 153.046 112.046 162 101 162Z" stroke="#667085" stroke-width="2"/>
<path d="M7.14214 115.995C-0.668352 108.184 -0.668352 95.521 7.14214 87.7105L86.7107 8.14205C94.5212 0.331563 107.184 0.331555 114.995 8.14204C122.805 15.9525 122.805 28.6158 114.995 36.4263L35.4264 115.995C27.6159 123.805 14.9526 123.805 7.14214 115.995Z" stroke="#667085" stroke-width="2"/>
<path d="M453 42C464.046 42 473 33.0457 473 22C473 10.9543 464.046 2 453 2C441.954 2 433 10.9543 433 22C433 33.0457 441.954 42 453 42Z" stroke="#667085" stroke-width="2"/>
<path d="M453 162C464.046 162 473 153.046 473 142C473 130.954 464.046 122 453 122C441.954 122 433 130.954 433 142C433 153.046 441.954 162 453 162Z" stroke="#667085" stroke-width="2"/>
<path d="M373 42C384.046 42 393 33.0457 393 22C393 10.9543 384.046 2 373 2C361.954 2 353 10.9543 353 22C353 33.0457 361.954 42 373 42Z" stroke="#667085" stroke-width="2"/>
<path d="M404 102C415.046 102 424 93.0457 424 82C424 70.9543 415.046 62 404 62C392.954 62 384 70.9543 384 82C384 93.0457 392.954 102 404 102Z" stroke="#667085" stroke-width="2"/>
<path d="M373 162C384.046 162 393 153.046 393 142C393 130.954 384.046 122 373 122C361.954 122 353 130.954 353 142C353 153.046 361.954 162 373 162Z" stroke="#667085" stroke-width="2"/>
<path d="M390.5 96.5001C383.857 91.2251 381 79.0001 389 68.5001L437.5 9.50009C442.5 2.50004 456 -2 466.5 7.00009C472 14.0001 475.5 17.0001 471 31.5001L420 94.0001C420 94.0001 407.5 110 390.5 96.5001Z" stroke="#667085" stroke-width="2"/>
<path d="M453 162C441.954 162 433 153.046 433 142C436.335 113.922 430.723 105.393 409 101.5C388.5 106 380 86.5 385 76C393 55.5 412.167 63 414.5 65C416.833 67.0001 459.485 76.7724 465 87.5C470.515 98.2276 473 142 473 142C473 153.046 464.046 162 453 162Z" stroke="#667085" stroke-width="2"/>
<path d="M353 22C353 13 362 2 371.5 2L439 2.00001C450 2.5 460.179 0.331555 467.99 8.14204C475.8 15.9525 475.31 27.6895 467.5 35.5L465.5 37.5L462.5 39.5L460.5 40.5L458.5 41L457 41.5L454.5 42L371.5 42C359 41 353 30 353 22Z" stroke="#667085" stroke-width="2"/>
<path d="M353 142C353 133 362 122 371.5 122L439 122C450 122.5 460.179 120.332 467.99 128.142C475.8 135.953 475.31 147.689 467.5 155.5L465.5 157.5L462.5 159.5L460.5 160.5L458.5 161L457 161.5L454.5 162L371.5 162C359 161 353 150 353 142Z" stroke="#667085" stroke-width="2"/>
<path d="M253 162C297.183 162 333 126.183 333 82C333 37.8172 297.183 2 253 2C208.817 2 173 37.8172 173 82C173 126.183 208.817 162 253 162Z" stroke="#667085" stroke-width="2"/>
<path d="M253 122C275.091 122 293 104.091 293 82C293 59.9086 275.091 42 253 42C230.909 42 213 59.9086 213 82C213 104.091 230.909 122 253 122Z" stroke="#667085" stroke-width="2"/>
<path d="M0 1L513 1.00004" stroke="#667085" stroke-width="2"/>
<path d="M0 163H513" stroke="#667085" stroke-width="2"/>
</g>
<defs>
<clipPath id="clip0_779_25">
<rect width="514" height="164" fill="white"/>
</clipPath>
</defs>
</svg>
